SplineFontDB: 3.2
FontName: Basty-tiny
FullName: Basty tiny
FamilyName: Basty
Weight: Regular
Copyright: Copyright (c) 2020, Sebastian Sangervasi
UComments: "2020-5-20: Created with FontForge (http://fontforge.org)"
Version: 001.000
ItalicAngle: 0
UnderlinePosition: 0
UnderlineWidth: 0
Ascent: 765
Descent: 255
InvalidEm: 0
LayerCount: 2
Layer: 0 0 "Back" 1
Layer: 1 0 "Fore" 0
XUID: [1021 383 -2108585231 24349]
StyleMap: 0x0000
FSType: 0
OS2Version: 0
OS2_WeightWidthSlopeOnly: 0
OS2_UseTypoMetrics: 1
CreationTime: 1590033200
ModificationTime: 1590037581
PfmFamily: 17
TTFWeight: 400
TTFWidth: 5
LineGap: 128
VLineGap: 128
OS2TypoAscent: 0
OS2TypoAOffset: 1
OS2TypoDescent: 0
OS2TypoDOffset: 1
OS2TypoLinegap: 128
OS2WinAscent: 0
OS2WinAOffset: 1
OS2WinDescent: 0
OS2WinDOffset: 1
HheadAscent: 0
HheadAOffset: 1
HheadDescent: 0
HheadDOffset: 1
OS2Vendor: 'PfEd'
MarkAttachClasses: 1
DEI: 91125
LangName: 1033
Encoding: ISO8859-1
UnicodeInterp: none
NameList: AGL For New Fonts
DisplaySize: -48
AntiAlias: 1
FitToEm: 0
WinInfo: 0 32 19
BeginPrivate: 0
EndPrivate
BeginChars: 256 256

StartChar: A
Encoding: 65 65 65
Width: 764
Flags: HW
LayerCount: 2
Fore
SplineSet
255 637 m 1
 255 765 l 1
 383 765 l 1
 383 637 l 1
 255 637 l 1
383 637 m 1
 383 765 l 1
 510 765 l 1
 510 637 l 1
 383 637 l 1
128 510 m 1
 128 637 l 1
 255 637 l 1
 255 510 l 1
 128 510 l 1
510 510 m 1
 510 637 l 1
 637 637 l 1
 637 510 l 1
 510 510 l 1
128 383 m 1
 128 510 l 1
 255 510 l 1
 255 383 l 1
 128 383 l 1
510 383 m 1
 510 510 l 1
 637 510 l 1
 637 383 l 1
 510 383 l 1
128 255 m 1
 128 383 l 1
 255 383 l 1
 255 255 l 1
 128 255 l 1
510 255 m 1
 510 383 l 1
 637 383 l 1
 637 255 l 1
 510 255 l 1
128 128 m 1
 128 255 l 1
 255 255 l 1
 255 128 l 1
 128 128 l 1
255 128 m 1
 255 255 l 1
 383 255 l 1
 383 128 l 1
 255 128 l 1
383 128 m 1
 383 255 l 1
 510 255 l 1
 510 128 l 1
 383 128 l 1
510 128 m 1
 510 255 l 1
 637 255 l 1
 637 128 l 1
 510 128 l 1
128 0 m 1
 128 128 l 1
 255 128 l 1
 255 0 l 1
 128 0 l 1
510 0 m 1
 510 128 l 1
 637 128 l 1
 637 0 l 1
 510 0 l 1
255 637 m 1
 255 765 l 1
 383 765 l 1
 383 637 l 1
 255 637 l 1
383 637 m 1
 383 765 l 1
 510 765 l 1
 510 637 l 1
 383 637 l 1
128 510 m 1
 128 637 l 1
 255 637 l 1
 255 510 l 1
 128 510 l 1
510 510 m 1
 510 637 l 1
 637 637 l 1
 637 510 l 1
 510 510 l 1
128 383 m 1
 128 510 l 1
 255 510 l 1
 255 383 l 1
 128 383 l 1
510 383 m 1
 510 510 l 1
 637 510 l 1
 637 383 l 1
 510 383 l 1
128 255 m 1
 128 383 l 1
 255 383 l 1
 255 255 l 1
 128 255 l 1
510 255 m 1
 510 383 l 1
 637 383 l 1
 637 255 l 1
 510 255 l 1
128 128 m 1
 128 255 l 1
 255 255 l 1
 255 128 l 1
 128 128 l 1
255 128 m 1
 255 255 l 1
 383 255 l 1
 383 128 l 1
 255 128 l 1
383 128 m 1
 383 255 l 1
 510 255 l 1
 510 128 l 1
 383 128 l 1
510 128 m 1
 510 255 l 1
 637 255 l 1
 637 128 l 1
 510 128 l 1
128 0 m 1
 128 128 l 1
 255 128 l 1
 255 0 l 1
 128 0 l 1
510 0 m 1
 510 128 l 1
 637 128 l 1
 637 0 l 1
 510 0 l 1
255 637 m 1
 255 765 l 1
 383 765 l 1
 383 637 l 1
 255 637 l 1
383 637 m 1
 383 765 l 1
 510 765 l 1
 510 637 l 1
 383 637 l 1
128 510 m 1
 128 637 l 1
 255 637 l 1
 255 510 l 1
 128 510 l 1
510 510 m 1
 510 637 l 1
 637 637 l 1
 637 510 l 1
 510 510 l 1
128 383 m 1
 128 510 l 1
 255 510 l 1
 255 383 l 1
 128 383 l 1
510 383 m 1
 510 510 l 1
 637 510 l 1
 637 383 l 1
 510 383 l 1
128 255 m 1
 128 383 l 1
 255 383 l 1
 255 255 l 1
 128 255 l 1
510 255 m 1
 510 383 l 1
 637 383 l 1
 637 255 l 1
 510 255 l 1
128 128 m 1
 128 255 l 1
 255 255 l 1
 255 128 l 1
 128 128 l 1
255 128 m 1
 255 255 l 1
 383 255 l 1
 383 128 l 1
 255 128 l 1
383 128 m 1
 383 255 l 1
 510 255 l 1
 510 128 l 1
 383 128 l 1
510 128 m 1
 510 255 l 1
 637 255 l 1
 637 128 l 1
 510 128 l 1
128 0 m 1
 128 128 l 1
 255 128 l 1
 255 0 l 1
 128 0 l 1
510 0 m 1
 510 128 l 1
 637 128 l 1
 637 0 l 1
 510 0 l 1
255 637 m 1
 255 765 l 1
 383 765 l 1
 383 637 l 1
 255 637 l 1
383 637 m 1
 383 765 l 1
 510 765 l 1
 510 637 l 1
 383 637 l 1
128 510 m 1
 128 637 l 1
 255 637 l 1
 255 510 l 1
 128 510 l 1
510 510 m 1
 510 637 l 1
 637 637 l 1
 637 510 l 1
 510 510 l 1
128 383 m 1
 128 510 l 1
 255 510 l 1
 255 383 l 1
 128 383 l 1
510 383 m 1
 510 510 l 1
 637 510 l 1
 637 383 l 1
 510 383 l 1
128 255 m 1
 128 383 l 1
 255 383 l 1
 255 255 l 1
 128 255 l 1
510 255 m 1
 510 383 l 1
 637 383 l 1
 637 255 l 1
 510 255 l 1
128 128 m 1
 128 255 l 1
 255 255 l 1
 255 128 l 1
 128 128 l 1
255 128 m 1
 255 255 l 1
 383 255 l 1
 383 128 l 1
 255 128 l 1
383 128 m 1
 383 255 l 1
 510 255 l 1
 510 128 l 1
 383 128 l 1
510 128 m 1
 510 255 l 1
 637 255 l 1
 637 128 l 1
 510 128 l 1
128 0 m 1
 128 128 l 1
 255 128 l 1
 255 0 l 1
 128 0 l 1
510 0 m 1
 510 128 l 1
 637 128 l 1
 637 0 l 1
 510 0 l 1
255 637 m 1
 255 765 l 1
 383 765 l 1
 383 637 l 1
 255 637 l 1
383 637 m 1
 383 765 l 1
 510 765 l 1
 510 637 l 1
 383 637 l 1
128 510 m 1
 128 637 l 1
 255 637 l 1
 255 510 l 1
 128 510 l 1
510 510 m 1
 510 637 l 1
 637 637 l 1
 637 510 l 1
 510 510 l 1
128 383 m 1
 128 510 l 1
 255 510 l 1
 255 383 l 1
 128 383 l 1
510 383 m 1
 510 510 l 1
 637 510 l 1
 637 383 l 1
 510 383 l 1
128 255 m 1
 128 383 l 1
 255 383 l 1
 255 255 l 1
 128 255 l 1
510 255 m 1
 510 383 l 1
 637 383 l 1
 637 255 l 1
 510 255 l 1
128 128 m 1
 128 255 l 1
 255 255 l 1
 255 128 l 1
 128 128 l 1
255 128 m 1
 255 255 l 1
 383 255 l 1
 383 128 l 1
 255 128 l 1
383 128 m 1
 383 255 l 1
 510 255 l 1
 510 128 l 1
 383 128 l 1
510 128 m 1
 510 255 l 1
 637 255 l 1
 637 128 l 1
 510 128 l 1
128 0 m 1
 128 128 l 1
 255 128 l 1
 255 0 l 1
 128 0 l 1
510 0 m 1
 510 128 l 1
 637 128 l 1
 637 0 l 1
 510 0 l 1
255 637 m 1
 383 637 l 1
 383 765 l 1
 255 765 l 1
 255 637 l 1
383 637 m 1
 510 637 l 1
 510 765 l 1
 383 765 l 1
 383 637 l 1
128 510 m 1
 255 510 l 1
 255 637 l 1
 128 637 l 1
 128 510 l 1
510 510 m 1
 637 510 l 1
 637 637 l 1
 510 637 l 1
 510 510 l 1
128 383 m 1
 255 383 l 1
 255 510 l 1
 128 510 l 1
 128 383 l 1
510 383 m 1
 637 383 l 1
 637 510 l 1
 510 510 l 1
 510 383 l 1
128 255 m 1
 255 255 l 1
 255 383 l 1
 128 383 l 1
 128 255 l 1
510 255 m 1
 637 255 l 1
 637 383 l 1
 510 383 l 1
 510 255 l 1
128 128 m 1
 255 128 l 1
 255 255 l 1
 128 255 l 1
 128 128 l 1
255 128 m 1
 383 128 l 1
 383 255 l 1
 255 255 l 1
 255 128 l 1
383 128 m 1
 510 128 l 1
 510 255 l 1
 383 255 l 1
 383 128 l 1
510 128 m 1
 637 128 l 1
 637 255 l 1
 510 255 l 1
 510 128 l 1
128 0 m 1
 255 0 l 1
 255 128 l 1
 128 128 l 1
 128 0 l 1
510 0 m 1
 637 0 l 1
 637 128 l 1
 510 128 l 1
 510 0 l 1
EndSplineSet
EndChar

StartChar: B
Encoding: 66 66 66
Width: 764
Flags: HW
LayerCount: 2
Fore
SplineSet
0 637 m 1
 0 765 l 5
 128 765 l 1
 128 637 l 1
 0 637 l 1
128 637 m 1
 128 765 l 1
 255 765 l 1
 255 637 l 1
 128 637 l 1
255 637 m 1
 255 765 l 1
 383 765 l 1
 383 637 l 1
 255 637 l 1
0 510 m 1
 0 637 l 1
 128 637 l 1
 128 510 l 1
 0 510 l 1
383 510 m 1
 383 637 l 1
 510 637 l 1
 510 510 l 1
 383 510 l 1
0 383 m 1
 0 510 l 1
 128 510 l 1
 128 383 l 1
 0 383 l 1
383 383 m 1
 383 510 l 1
 510 510 l 1
 510 383 l 1
 383 383 l 1
0 255 m 1
 0 383 l 1
 128 383 l 1
 128 255 l 1
 0 255 l 1
128 255 m 1
 128 383 l 1
 255 383 l 1
 255 255 l 1
 128 255 l 1
255 255 m 1
 255 383 l 1
 383 383 l 1
 383 255 l 1
 255 255 l 1
0 128 m 1
 0 255 l 1
 128 255 l 1
 128 128 l 1
 0 128 l 1
383 128 m 1
 383 255 l 1
 510 255 l 1
 510 128 l 1
 383 128 l 1
0 0 m 1
 0 128 l 1
 128 128 l 1
 128 0 l 1
 0 0 l 1
128 0 m 1
 128 128 l 1
 255 128 l 1
 255 0 l 1
 128 0 l 1
255 0 m 1
 255 128 l 1
 383 128 l 1
 383 0 l 1
 255 0 l 1
0 637 m 1
 0 765 l 1
 128 765 l 1
 128 637 l 1
 0 637 l 1
128 637 m 1
 128 765 l 1
 255 765 l 1
 255 637 l 1
 128 637 l 1
255 637 m 1
 255 765 l 1
 383 765 l 1
 383 637 l 1
 255 637 l 1
0 510 m 1
 0 637 l 1
 128 637 l 1
 128 510 l 1
 0 510 l 1
383 510 m 1
 383 637 l 1
 510 637 l 1
 510 510 l 1
 383 510 l 1
0 383 m 1
 0 510 l 1
 128 510 l 1
 128 383 l 1
 0 383 l 1
383 383 m 1
 383 510 l 1
 510 510 l 1
 510 383 l 1
 383 383 l 1
0 255 m 1
 0 383 l 1
 128 383 l 1
 128 255 l 1
 0 255 l 1
128 255 m 1
 128 383 l 1
 255 383 l 1
 255 255 l 1
 128 255 l 1
255 255 m 1
 255 383 l 1
 383 383 l 1
 383 255 l 1
 255 255 l 1
0 128 m 1
 0 255 l 1
 128 255 l 1
 128 128 l 1
 0 128 l 1
383 128 m 1
 383 255 l 1
 510 255 l 1
 510 128 l 1
 383 128 l 1
0 0 m 1
 0 128 l 1
 128 128 l 1
 128 0 l 1
 0 0 l 1
128 0 m 1
 128 128 l 1
 255 128 l 1
 255 0 l 1
 128 0 l 1
255 0 m 1
 255 128 l 1
 383 128 l 1
 383 0 l 1
 255 0 l 1
0 637 m 1
 128 637 l 1
 128 765 l 1
 0 765 l 1
 0 637 l 1
128 637 m 1
 255 637 l 1
 255 765 l 1
 128 765 l 1
 128 637 l 1
255 637 m 1
 383 637 l 1
 383 765 l 1
 255 765 l 1
 255 637 l 1
0 510 m 1
 128 510 l 1
 128 637 l 1
 0 637 l 1
 0 510 l 1
383 510 m 1
 510 510 l 1
 510 637 l 1
 383 637 l 1
 383 510 l 1
0 383 m 1
 128 383 l 1
 128 510 l 1
 0 510 l 1
 0 383 l 1
383 383 m 1
 510 383 l 1
 510 510 l 1
 383 510 l 1
 383 383 l 1
0 255 m 1
 128 255 l 1
 128 383 l 1
 0 383 l 1
 0 255 l 1
128 255 m 1
 255 255 l 1
 255 383 l 1
 128 383 l 1
 128 255 l 1
255 255 m 1
 383 255 l 1
 383 383 l 1
 255 383 l 1
 255 255 l 1
0 128 m 1
 128 128 l 1
 128 255 l 1
 0 255 l 1
 0 128 l 1
383 128 m 1
 510 128 l 1
 510 255 l 1
 383 255 l 1
 383 128 l 1
0 0 m 1
 128 0 l 1
 128 128 l 1
 0 128 l 1
 0 0 l 1
128 0 m 1
 255 0 l 1
 255 128 l 1
 128 128 l 1
 128 0 l 1
255 0 m 1
 383 0 l 1
 383 128 l 1
 255 128 l 1
 255 0 l 1
EndSplineSet
EndChar

StartChar: C
Encoding: 67 67 67
Width: 764
Flags: HW
LayerCount: 2
Fore
SplineSet
255 637 m 1
 255 765 l 1
 383 765 l 1
 383 637 l 1
 255 637 l 1
383 637 m 1
 383 765 l 1
 510 765 l 1
 510 637 l 1
 383 637 l 1
128 510 m 1
 128 637 l 1
 255 637 l 1
 255 510 l 1
 128 510 l 1
0 383 m 1
 0 510 l 1
 128 510 l 1
 128 383 l 1
 0 383 l 1
0 255 m 1
 0 383 l 1
 128 383 l 1
 128 255 l 1
 0 255 l 1
0 128 m 1
 0 255 l 1
 128 255 l 1
 128 128 l 1
 0 128 l 1
128 0 m 1
 128 128 l 1
 255 128 l 1
 255 0 l 1
 128 0 l 1
255 0 m 1
 255 128 l 1
 383 128 l 1
 383 0 l 1
 255 0 l 1
383 0 m 1
 383 128 l 1
 510 128 l 1
 510 0 l 1
 383 0 l 1
255 637 m 1
 255 765 l 1
 383 765 l 1
 383 637 l 1
 255 637 l 1
383 637 m 1
 383 765 l 1
 510 765 l 1
 510 637 l 1
 383 637 l 1
128 510 m 1
 128 637 l 1
 255 637 l 1
 255 510 l 1
 128 510 l 1
0 383 m 1
 0 510 l 1
 128 510 l 1
 128 383 l 1
 0 383 l 1
0 255 m 1
 0 383 l 1
 128 383 l 1
 128 255 l 1
 0 255 l 1
0 128 m 1
 0 255 l 1
 128 255 l 1
 128 128 l 1
 0 128 l 1
128 0 m 1
 128 128 l 1
 255 128 l 5
 255 0 l 1
 128 0 l 1
255 0 m 1
 255 128 l 1
 383 128 l 1
 383 0 l 1
 255 0 l 1
383 0 m 1
 383 128 l 1
 510 128 l 1
 510 0 l 1
 383 0 l 1
255 637 m 1
 383 637 l 1
 383 765 l 1
 255 765 l 1
 255 637 l 1
383 637 m 1
 510 637 l 1
 510 765 l 1
 383 765 l 1
 383 637 l 1
128 510 m 1
 255 510 l 1
 255 637 l 1
 128 637 l 1
 128 510 l 1
0 383 m 1
 128 383 l 1
 128 510 l 1
 0 510 l 1
 0 383 l 1
0 255 m 1
 128 255 l 1
 128 383 l 1
 0 383 l 1
 0 255 l 1
0 128 m 1
 128 128 l 1
 128 255 l 1
 0 255 l 1
 0 128 l 1
128 0 m 1
 255 0 l 1
 255 128 l 1
 128 128 l 1
 128 0 l 1
255 0 m 1
 383 0 l 1
 383 128 l 1
 255 128 l 1
 255 0 l 1
383 0 m 1
 510 0 l 1
 510 128 l 1
 383 128 l 1
 383 0 l 1
EndSplineSet
EndChar

StartChar: D
Encoding: 68 68 68
Width: 764
Flags: HW
LayerCount: 2
Fore
SplineSet
0 637 m 1
 0 765 l 1
 128 765 l 1
 128 637 l 1
 0 637 l 1
128 637 m 1
 128 765 l 1
 255 765 l 1
 255 637 l 1
 128 637 l 1
255 637 m 1
 255 765 l 1
 383 765 l 1
 383 637 l 1
 255 637 l 1
0 510 m 1
 0 637 l 1
 128 637 l 1
 128 510 l 1
 0 510 l 1
383 510 m 1
 383 637 l 1
 510 637 l 1
 510 510 l 1
 383 510 l 1
0 383 m 1
 0 510 l 1
 128 510 l 1
 128 383 l 1
 0 383 l 1
383 383 m 1
 383 510 l 1
 510 510 l 1
 510 383 l 1
 383 383 l 1
0 255 m 1
 0 383 l 1
 128 383 l 1
 128 255 l 1
 0 255 l 1
383 255 m 1
 383 383 l 1
 510 383 l 1
 510 255 l 1
 383 255 l 1
0 128 m 1
 0 255 l 1
 128 255 l 1
 128 128 l 1
 0 128 l 1
383 128 m 1
 383 255 l 1
 510 255 l 1
 510 128 l 1
 383 128 l 1
0 0 m 1
 0 128 l 1
 128 128 l 1
 128 0 l 1
 0 0 l 1
128 0 m 1
 128 128 l 1
 255 128 l 1
 255 0 l 1
 128 0 l 1
255 0 m 1
 255 128 l 1
 383 128 l 1
 383 0 l 1
 255 0 l 1
0 637 m 1
 0 765 l 1
 128 765 l 1
 128 637 l 1
 0 637 l 1
128 637 m 1
 128 765 l 1
 255 765 l 1
 255 637 l 1
 128 637 l 1
255 637 m 1
 255 765 l 1
 383 765 l 1
 383 637 l 1
 255 637 l 1
0 510 m 1
 0 637 l 1
 128 637 l 1
 128 510 l 1
 0 510 l 1
383 510 m 1
 383 637 l 1
 510 637 l 1
 510 510 l 1
 383 510 l 1
0 383 m 1
 0 510 l 1
 128 510 l 1
 128 383 l 1
 0 383 l 1
383 383 m 1
 383 510 l 1
 510 510 l 1
 510 383 l 1
 383 383 l 1
0 255 m 1
 0 383 l 1
 128 383 l 1
 128 255 l 1
 0 255 l 1
383 255 m 1
 383 383 l 1
 510 383 l 1
 510 255 l 1
 383 255 l 1
0 128 m 1
 0 255 l 1
 128 255 l 1
 128 128 l 1
 0 128 l 1
383 128 m 1
 383 255 l 1
 510 255 l 1
 510 128 l 1
 383 128 l 1
0 0 m 1
 0 128 l 1
 128 128 l 1
 128 0 l 1
 0 0 l 1
128 0 m 1
 128 128 l 1
 255 128 l 1
 255 0 l 1
 128 0 l 1
255 0 m 1
 255 128 l 1
 383 128 l 1
 383 0 l 1
 255 0 l 1
0 637 m 1
 128 637 l 1
 128 765 l 1
 0 765 l 1
 0 637 l 1
128 637 m 1
 255 637 l 1
 255 765 l 1
 128 765 l 1
 128 637 l 1
255 637 m 1
 383 637 l 1
 383 765 l 1
 255 765 l 1
 255 637 l 1
0 510 m 1
 128 510 l 1
 128 637 l 1
 0 637 l 1
 0 510 l 1
383 510 m 1
 510 510 l 1
 510 637 l 1
 383 637 l 1
 383 510 l 1
0 383 m 1
 128 383 l 1
 128 510 l 1
 0 510 l 1
 0 383 l 1
383 383 m 1
 510 383 l 1
 510 510 l 1
 383 510 l 1
 383 383 l 1
0 255 m 1
 128 255 l 1
 128 383 l 1
 0 383 l 1
 0 255 l 1
383 255 m 1
 510 255 l 1
 510 383 l 1
 383 383 l 1
 383 255 l 1
0 128 m 1
 128 128 l 1
 128 255 l 1
 0 255 l 1
 0 128 l 1
383 128 m 1
 510 128 l 1
 510 255 l 1
 383 255 l 1
 383 128 l 1
0 0 m 1
 128 0 l 1
 128 128 l 1
 0 128 l 1
 0 0 l 1
128 0 m 1
 255 0 l 1
 255 128 l 1
 128 128 l 1
 128 0 l 1
255 0 m 1
 383 0 l 1
 383 128 l 1
 255 128 l 1
 255 0 l 1
EndSplineSet
EndChar

StartChar: E
Encoding: 69 69 69
Width: 764
Flags: HW
LayerCount: 2
Fore
SplineSet
0 637 m 1
 0 765 l 1
 128 765 l 1
 128 637 l 1
 0 637 l 1
128 637 m 1
 128 765 l 1
 255 765 l 1
 255 637 l 1
 128 637 l 1
255 637 m 1
 255 765 l 1
 383 765 l 1
 383 637 l 1
 255 637 l 1
0 510 m 1
 0 637 l 1
 128 637 l 1
 128 510 l 1
 0 510 l 1
0 383 m 1
 0 510 l 1
 128 510 l 1
 128 383 l 1
 0 383 l 1
0 255 m 1
 0 383 l 1
 128 383 l 1
 128 255 l 1
 0 255 l 1
128 255 m 1
 128 383 l 1
 255 383 l 1
 255 255 l 1
 128 255 l 1
255 255 m 1
 255 383 l 1
 383 383 l 1
 383 255 l 1
 255 255 l 1
0 128 m 1
 0 255 l 1
 128 255 l 1
 128 128 l 1
 0 128 l 1
0 0 m 1
 0 128 l 1
 128 128 l 1
 128 0 l 1
 0 0 l 1
128 0 m 1
 128 128 l 1
 255 128 l 1
 255 0 l 1
 128 0 l 1
255 0 m 1
 255 128 l 1
 383 128 l 1
 383 0 l 1
 255 0 l 1
383 0 m 1
 383 128 l 1
 510 128 l 1
 510 0 l 1
 383 0 l 1
0 637 m 1
 0 765 l 1
 128 765 l 1
 128 637 l 1
 0 637 l 1
128 637 m 1
 128 765 l 1
 255 765 l 1
 255 637 l 1
 128 637 l 1
255 637 m 1
 255 765 l 1
 383 765 l 1
 383 637 l 1
 255 637 l 1
0 510 m 1
 0 637 l 1
 128 637 l 1
 128 510 l 1
 0 510 l 1
0 383 m 1
 0 510 l 1
 128 510 l 1
 128 383 l 1
 0 383 l 1
0 255 m 1
 0 383 l 1
 128 383 l 1
 128 255 l 1
 0 255 l 1
128 255 m 1
 128 383 l 1
 255 383 l 1
 255 255 l 1
 128 255 l 1
255 255 m 1
 255 383 l 1
 383 383 l 1
 383 255 l 1
 255 255 l 1
0 128 m 1
 0 255 l 1
 128 255 l 1
 128 128 l 1
 0 128 l 1
0 0 m 1
 0 128 l 1
 128 128 l 1
 128 0 l 1
 0 0 l 1
128 0 m 1
 128 128 l 1
 255 128 l 1
 255 0 l 1
 128 0 l 1
255 0 m 1
 255 128 l 1
 383 128 l 1
 383 0 l 1
 255 0 l 1
383 0 m 1
 383 128 l 1
 510 128 l 1
 510 0 l 1
 383 0 l 1
0 637 m 1
 128 637 l 1
 128 765 l 1
 0 765 l 1
 0 637 l 1
128 637 m 1
 255 637 l 1
 255 765 l 1
 128 765 l 1
 128 637 l 1
255 637 m 1
 383 637 l 1
 383 765 l 1
 255 765 l 1
 255 637 l 1
0 510 m 1
 128 510 l 1
 128 637 l 1
 0 637 l 1
 0 510 l 1
0 383 m 1
 128 383 l 1
 128 510 l 1
 0 510 l 1
 0 383 l 1
0 255 m 1
 128 255 l 1
 128 383 l 1
 0 383 l 1
 0 255 l 1
128 255 m 1
 255 255 l 1
 255 383 l 1
 128 383 l 1
 128 255 l 1
255 255 m 1
 383 255 l 1
 383 383 l 1
 255 383 l 1
 255 255 l 1
0 128 m 1
 128 128 l 1
 128 255 l 1
 0 255 l 1
 0 128 l 1
0 0 m 1
 128 0 l 1
 128 128 l 1
 0 128 l 1
 0 0 l 1
128 0 m 1
 255 0 l 1
 255 128 l 1
 128 128 l 1
 128 0 l 1
255 0 m 1
 383 0 l 1
 383 128 l 1
 255 128 l 1
 255 0 l 1
383 0 m 1
 510 0 l 1
 510 128 l 1
 383 128 l 1
 383 0 l 1
EndSplineSet
EndChar

StartChar: F
Encoding: 70 70 70
Width: 764
Flags: HW
LayerCount: 2
Fore
SplineSet
128 637 m 1
 128 765 l 1
 255 765 l 1
 255 637 l 1
 128 637 l 1
255 637 m 1
 255 765 l 1
 383 765 l 1
 383 637 l 1
 255 637 l 1
383 637 m 1
 383 765 l 1
 510 765 l 1
 510 637 l 1
 383 637 l 1
0 510 m 1
 0 637 l 1
 128 637 l 1
 128 510 l 1
 0 510 l 1
0 383 m 1
 0 510 l 1
 128 510 l 1
 128 383 l 1
 0 383 l 1
128 383 m 1
 128 510 l 1
 255 510 l 1
 255 383 l 1
 128 383 l 1
255 383 m 1
 255 510 l 1
 383 510 l 1
 383 383 l 1
 255 383 l 1
0 255 m 1
 0 383 l 1
 128 383 l 1
 128 255 l 1
 0 255 l 1
0 128 m 1
 0 255 l 1
 128 255 l 1
 128 128 l 1
 0 128 l 1
0 0 m 1
 0 128 l 1
 128 128 l 1
 128 0 l 1
 0 0 l 1
128 637 m 1
 128 765 l 1
 255 765 l 1
 255 637 l 1
 128 637 l 1
255 637 m 1
 255 765 l 1
 383 765 l 1
 383 637 l 1
 255 637 l 1
383 637 m 1
 383 765 l 1
 510 765 l 1
 510 637 l 1
 383 637 l 1
0 510 m 1
 0 637 l 1
 128 637 l 1
 128 510 l 1
 0 510 l 1
0 383 m 1
 0 510 l 1
 128 510 l 1
 128 383 l 1
 0 383 l 1
128 383 m 1
 128 510 l 1
 255 510 l 1
 255 383 l 1
 128 383 l 1
255 383 m 1
 255 510 l 1
 383 510 l 1
 383 383 l 1
 255 383 l 1
0 255 m 1
 0 383 l 1
 128 383 l 1
 128 255 l 1
 0 255 l 1
0 128 m 1
 0 255 l 1
 128 255 l 1
 128 128 l 1
 0 128 l 1
0 0 m 1
 0 128 l 1
 128 128 l 1
 128 0 l 1
 0 0 l 1
128 637 m 1
 255 637 l 1
 255 765 l 1
 128 765 l 1
 128 637 l 1
255 637 m 1
 383 637 l 1
 383 765 l 1
 255 765 l 1
 255 637 l 1
383 637 m 1
 510 637 l 1
 510 765 l 1
 383 765 l 1
 383 637 l 1
0 510 m 1
 128 510 l 1
 128 637 l 1
 0 637 l 1
 0 510 l 1
0 383 m 1
 128 383 l 1
 128 510 l 1
 0 510 l 1
 0 383 l 1
128 383 m 1
 255 383 l 1
 255 510 l 1
 128 510 l 1
 128 383 l 1
255 383 m 1
 383 383 l 1
 383 510 l 1
 255 510 l 1
 255 383 l 1
0 255 m 1
 128 255 l 1
 128 383 l 1
 0 383 l 1
 0 255 l 1
0 128 m 1
 128 128 l 1
 128 255 l 1
 0 255 l 1
 0 128 l 1
0 0 m 1
 128 0 l 1
 128 128 l 1
 0 128 l 1
 0 0 l 1
EndSplineSet
EndChar

StartChar: G
Encoding: 71 71 71
Width: 764
Flags: HW
LayerCount: 2
Fore
SplineSet
128 637 m 1
 128 765 l 1
 255 765 l 1
 255 637 l 1
 128 637 l 1
255 637 m 1
 255 765 l 1
 383 765 l 1
 383 637 l 1
 255 637 l 1
383 637 m 1
 383 765 l 1
 510 765 l 1
 510 637 l 1
 383 637 l 1
0 510 m 1
 0 637 l 1
 128 637 l 1
 128 510 l 1
 0 510 l 1
0 383 m 1
 0 510 l 1
 128 510 l 1
 128 383 l 1
 0 383 l 1
0 255 m 1
 0 383 l 1
 128 383 l 1
 128 255 l 1
 0 255 l 1
255 255 m 1
 255 383 l 1
 383 383 l 1
 383 255 l 1
 255 255 l 1
383 255 m 1
 383 383 l 1
 510 383 l 1
 510 255 l 1
 383 255 l 1
0 128 m 1
 0 255 l 1
 128 255 l 1
 128 128 l 1
 0 128 l 1
383 128 m 1
 383 255 l 1
 510 255 l 1
 510 128 l 1
 383 128 l 1
128 0 m 1
 128 128 l 1
 255 128 l 1
 255 0 l 1
 128 0 l 1
255 0 m 1
 255 128 l 1
 383 128 l 1
 383 0 l 1
 255 0 l 1
383 0 m 1
 383 128 l 1
 510 128 l 1
 510 0 l 1
 383 0 l 1
128 637 m 1
 128 765 l 1
 255 765 l 1
 255 637 l 1
 128 637 l 1
255 637 m 1
 255 765 l 1
 383 765 l 1
 383 637 l 1
 255 637 l 1
383 637 m 1
 383 765 l 1
 510 765 l 1
 510 637 l 1
 383 637 l 1
0 510 m 1
 0 637 l 1
 128 637 l 1
 128 510 l 1
 0 510 l 1
0 383 m 1
 0 510 l 1
 128 510 l 1
 128 383 l 1
 0 383 l 1
0 255 m 1
 0 383 l 1
 128 383 l 1
 128 255 l 1
 0 255 l 1
255 255 m 1
 255 383 l 1
 383 383 l 1
 383 255 l 1
 255 255 l 1
383 255 m 1
 383 383 l 1
 510 383 l 1
 510 255 l 1
 383 255 l 1
0 128 m 1
 0 255 l 1
 128 255 l 1
 128 128 l 1
 0 128 l 1
383 128 m 1
 383 255 l 1
 510 255 l 1
 510 128 l 1
 383 128 l 1
128 0 m 1
 128 128 l 1
 255 128 l 1
 255 0 l 1
 128 0 l 1
255 0 m 1
 255 128 l 1
 383 128 l 1
 383 0 l 1
 255 0 l 1
383 0 m 1
 383 128 l 1
 510 128 l 1
 510 0 l 1
 383 0 l 1
EndSplineSet
EndChar

StartChar: H
Encoding: 72 72 72
Width: 764
Flags: HW
LayerCount: 2
Fore
SplineSet
0 637 m 1
 0 765 l 1
 128 765 l 1
 128 637 l 1
 0 637 l 1
383 637 m 1
 383 765 l 1
 510 765 l 1
 510 637 l 1
 383 637 l 1
0 510 m 1
 0 637 l 1
 128 637 l 1
 128 510 l 1
 0 510 l 1
383 510 m 1
 383 637 l 1
 510 637 l 1
 510 510 l 1
 383 510 l 1
0 383 m 1
 0 510 l 1
 128 510 l 1
 128 383 l 1
 0 383 l 1
383 383 m 1
 383 510 l 1
 510 510 l 1
 510 383 l 1
 383 383 l 1
0 255 m 1
 0 383 l 1
 128 383 l 1
 128 255 l 1
 0 255 l 1
128 255 m 1
 128 383 l 1
 255 383 l 1
 255 255 l 1
 128 255 l 1
255 255 m 1
 255 383 l 1
 383 383 l 1
 383 255 l 1
 255 255 l 1
383 255 m 1
 383 383 l 1
 510 383 l 1
 510 255 l 1
 383 255 l 1
0 128 m 1
 0 255 l 1
 128 255 l 1
 128 128 l 1
 0 128 l 1
383 128 m 1
 383 255 l 1
 510 255 l 1
 510 128 l 1
 383 128 l 1
0 0 m 1
 0 128 l 1
 128 128 l 1
 128 0 l 1
 0 0 l 1
383 0 m 1
 383 128 l 1
 510 128 l 1
 510 0 l 1
 383 0 l 1
0 637 m 1
 0 765 l 1
 128 765 l 1
 128 637 l 1
 0 637 l 1
383 637 m 1
 383 765 l 1
 510 765 l 1
 510 637 l 1
 383 637 l 1
0 510 m 1
 0 637 l 1
 128 637 l 1
 128 510 l 1
 0 510 l 1
383 510 m 1
 383 637 l 1
 510 637 l 1
 510 510 l 1
 383 510 l 1
0 383 m 1
 0 510 l 1
 128 510 l 1
 128 383 l 1
 0 383 l 1
383 383 m 1
 383 510 l 1
 510 510 l 1
 510 383 l 1
 383 383 l 1
0 255 m 1
 0 383 l 1
 128 383 l 1
 128 255 l 1
 0 255 l 1
128 255 m 1
 128 383 l 1
 255 383 l 1
 255 255 l 1
 128 255 l 1
255 255 m 1
 255 383 l 1
 383 383 l 1
 383 255 l 1
 255 255 l 1
383 255 m 1
 383 383 l 1
 510 383 l 1
 510 255 l 1
 383 255 l 1
0 128 m 1
 0 255 l 1
 128 255 l 1
 128 128 l 1
 0 128 l 1
383 128 m 1
 383 255 l 1
 510 255 l 1
 510 128 l 1
 383 128 l 1
0 0 m 1
 0 128 l 1
 128 128 l 1
 128 0 l 1
 0 0 l 1
383 0 m 1
 383 128 l 1
 510 128 l 1
 510 0 l 1
 383 0 l 1
EndSplineSet
EndChar

StartChar: I
Encoding: 73 73 73
Width: 764
Flags: HW
LayerCount: 2
Fore
SplineSet
0 637 m 1
 0 765 l 1
 128 765 l 1
 128 637 l 1
 0 637 l 1
128 637 m 1
 128 765 l 1
 255 765 l 1
 255 637 l 1
 128 637 l 1
255 637 m 1
 255 765 l 1
 383 765 l 1
 383 637 l 1
 255 637 l 1
383 637 m 1
 383 765 l 1
 510 765 l 1
 510 637 l 1
 383 637 l 1
128 510 m 1
 128 637 l 1
 255 637 l 1
 255 510 l 1
 128 510 l 1
128 383 m 1
 128 510 l 1
 255 510 l 1
 255 383 l 1
 128 383 l 1
128 255 m 1
 128 383 l 1
 255 383 l 1
 255 255 l 1
 128 255 l 1
128 128 m 1
 128 255 l 1
 255 255 l 1
 255 128 l 1
 128 128 l 1
0 0 m 1
 0 128 l 1
 128 128 l 1
 128 0 l 1
 0 0 l 1
128 0 m 1
 128 128 l 1
 255 128 l 1
 255 0 l 1
 128 0 l 1
255 0 m 1
 255 128 l 1
 383 128 l 1
 383 0 l 1
 255 0 l 1
383 0 m 1
 383 128 l 1
 510 128 l 1
 510 0 l 1
 383 0 l 1
0 637 m 1
 0 765 l 1
 128 765 l 1
 128 637 l 1
 0 637 l 1
128 637 m 1
 128 765 l 1
 255 765 l 1
 255 637 l 1
 128 637 l 1
255 637 m 1
 255 765 l 1
 383 765 l 1
 383 637 l 1
 255 637 l 1
383 637 m 1
 383 765 l 1
 510 765 l 1
 510 637 l 1
 383 637 l 1
128 510 m 1
 128 637 l 1
 255 637 l 1
 255 510 l 1
 128 510 l 1
128 383 m 1
 128 510 l 1
 255 510 l 1
 255 383 l 1
 128 383 l 1
128 255 m 1
 128 383 l 1
 255 383 l 1
 255 255 l 1
 128 255 l 1
128 128 m 1
 128 255 l 1
 255 255 l 1
 255 128 l 1
 128 128 l 1
0 0 m 1
 0 128 l 1
 128 128 l 1
 128 0 l 1
 0 0 l 1
128 0 m 1
 128 128 l 1
 255 128 l 1
 255 0 l 1
 128 0 l 1
255 0 m 1
 255 128 l 1
 383 128 l 1
 383 0 l 1
 255 0 l 1
383 0 m 1
 383 128 l 1
 510 128 l 1
 510 0 l 1
 383 0 l 1
EndSplineSet
EndChar

StartChar: J
Encoding: 74 74 74
Width: 764
Flags: HW
LayerCount: 2
Fore
SplineSet
128 637 m 1
 128 765 l 1
 255 765 l 1
 255 637 l 1
 128 637 l 1
255 637 m 1
 255 765 l 1
 383 765 l 1
 383 637 l 1
 255 637 l 1
383 637 m 1
 383 765 l 1
 510 765 l 1
 510 637 l 1
 383 637 l 1
255 510 m 1
 255 637 l 1
 383 637 l 1
 383 510 l 1
 255 510 l 1
255 383 m 1
 255 510 l 1
 383 510 l 1
 383 383 l 1
 255 383 l 1
255 255 m 1
 255 383 l 1
 383 383 l 1
 383 255 l 1
 255 255 l 1
0 128 m 1
 0 255 l 1
 128 255 l 1
 128 128 l 1
 0 128 l 1
255 128 m 1
 255 255 l 1
 383 255 l 1
 383 128 l 1
 255 128 l 1
0 0 m 1
 0 128 l 1
 128 128 l 1
 128 0 l 1
 0 0 l 1
128 0 m 1
 128 128 l 1
 255 128 l 1
 255 0 l 1
 128 0 l 1
255 0 m 1
 255 128 l 1
 383 128 l 1
 383 0 l 1
 255 0 l 1
128 637 m 1
 128 765 l 1
 255 765 l 1
 255 637 l 1
 128 637 l 1
255 637 m 1
 255 765 l 1
 383 765 l 1
 383 637 l 1
 255 637 l 1
383 637 m 1
 383 765 l 1
 510 765 l 1
 510 637 l 1
 383 637 l 1
255 510 m 1
 255 637 l 1
 383 637 l 1
 383 510 l 1
 255 510 l 1
255 383 m 1
 255 510 l 1
 383 510 l 1
 383 383 l 1
 255 383 l 1
255 255 m 1
 255 383 l 1
 383 383 l 1
 383 255 l 1
 255 255 l 1
0 128 m 1
 0 255 l 1
 128 255 l 1
 128 128 l 1
 0 128 l 1
255 128 m 1
 255 255 l 1
 383 255 l 1
 383 128 l 1
 255 128 l 1
0 0 m 1
 0 128 l 1
 128 128 l 1
 128 0 l 1
 0 0 l 1
128 0 m 1
 128 128 l 1
 255 128 l 1
 255 0 l 1
 128 0 l 1
255 0 m 1
 255 128 l 1
 383 128 l 1
 383 0 l 1
 255 0 l 1
EndSplineSet
EndChar

StartChar: K
Encoding: 75 75 75
Width: 764
Flags: HW
LayerCount: 2
Fore
SplineSet
0 637 m 1
 0 765 l 1
 128 765 l 1
 128 637 l 1
 0 637 l 1
383 637 m 1
 383 765 l 1
 510 765 l 1
 510 637 l 1
 383 637 l 1
0 510 m 1
 0 637 l 1
 128 637 l 1
 128 510 l 1
 0 510 l 1
383 510 m 1
 383 637 l 1
 510 637 l 1
 510 510 l 1
 383 510 l 1
0 383 m 1
 0 510 l 1
 128 510 l 1
 128 383 l 1
 0 383 l 1
255 383 m 1
 255 510 l 1
 383 510 l 1
 383 383 l 1
 255 383 l 1
0 255 m 1
 0 383 l 1
 128 383 l 1
 128 255 l 1
 0 255 l 1
128 255 m 1
 128 383 l 1
 255 383 l 1
 255 255 l 1
 128 255 l 1
0 128 m 1
 0 255 l 1
 128 255 l 1
 128 128 l 1
 0 128 l 1
255 128 m 1
 255 255 l 1
 383 255 l 1
 383 128 l 1
 255 128 l 1
0 0 m 1
 0 128 l 1
 128 128 l 1
 128 0 l 1
 0 0 l 1
383 0 m 1
 383 128 l 1
 510 128 l 1
 510 0 l 1
 383 0 l 1
0 637 m 1
 0 765 l 1
 128 765 l 1
 128 637 l 1
 0 637 l 1
383 637 m 1
 383 765 l 1
 510 765 l 1
 510 637 l 1
 383 637 l 1
0 510 m 1
 0 637 l 1
 128 637 l 1
 128 510 l 1
 0 510 l 1
383 510 m 1
 383 637 l 1
 510 637 l 1
 510 510 l 1
 383 510 l 1
0 383 m 1
 0 510 l 1
 128 510 l 1
 128 383 l 1
 0 383 l 1
255 383 m 1
 255 510 l 1
 383 510 l 1
 383 383 l 1
 255 383 l 1
0 255 m 1
 0 383 l 1
 128 383 l 1
 128 255 l 1
 0 255 l 1
128 255 m 1
 128 383 l 1
 255 383 l 1
 255 255 l 1
 128 255 l 1
0 128 m 1
 0 255 l 1
 128 255 l 1
 128 128 l 1
 0 128 l 1
255 128 m 1
 255 255 l 1
 383 255 l 1
 383 128 l 1
 255 128 l 1
0 0 m 1
 0 128 l 1
 128 128 l 1
 128 0 l 1
 0 0 l 1
383 0 m 1
 383 128 l 1
 510 128 l 1
 510 0 l 1
 383 0 l 1
EndSplineSet
EndChar

StartChar: L
Encoding: 76 76 76
Width: 764
Flags: HW
LayerCount: 2
Fore
SplineSet
0 637 m 1
 0 765 l 1
 128 765 l 1
 128 637 l 1
 0 637 l 1
0 510 m 1
 0 637 l 1
 128 637 l 1
 128 510 l 1
 0 510 l 1
0 383 m 1
 0 510 l 1
 128 510 l 1
 128 383 l 1
 0 383 l 1
0 255 m 1
 0 383 l 1
 128 383 l 1
 128 255 l 1
 0 255 l 1
0 128 m 1
 0 255 l 1
 128 255 l 1
 128 128 l 1
 0 128 l 1
128 0 m 1
 128 128 l 1
 255 128 l 1
 255 0 l 1
 128 0 l 1
255 0 m 1
 255 128 l 1
 383 128 l 1
 383 0 l 1
 255 0 l 1
383 0 m 1
 383 128 l 1
 510 128 l 1
 510 0 l 1
 383 0 l 1
0 637 m 1
 0 765 l 1
 128 765 l 1
 128 637 l 1
 0 637 l 1
0 510 m 1
 0 637 l 1
 128 637 l 1
 128 510 l 1
 0 510 l 1
0 383 m 1
 0 510 l 1
 128 510 l 1
 128 383 l 1
 0 383 l 1
0 255 m 1
 0 383 l 1
 128 383 l 1
 128 255 l 1
 0 255 l 1
0 128 m 1
 0 255 l 1
 128 255 l 1
 128 128 l 1
 0 128 l 1
128 0 m 1
 128 128 l 1
 255 128 l 1
 255 0 l 1
 128 0 l 1
255 0 m 1
 255 128 l 1
 383 128 l 1
 383 0 l 1
 255 0 l 1
383 0 m 1
 383 128 l 1
 510 128 l 1
 510 0 l 1
 383 0 l 1
EndSplineSet
EndChar

StartChar: M
Encoding: 77 77 77
Width: 764
Flags: HW
LayerCount: 2
Fore
SplineSet
0 637 m 1
 0 765 l 1
 128 765 l 1
 128 637 l 1
 0 637 l 1
255 637 m 1
 255 765 l 1
 383 765 l 1
 383 637 l 1
 255 637 l 1
383 637 m 1
 383 765 l 1
 510 765 l 1
 510 637 l 1
 383 637 l 1
0 510 m 1
 0 637 l 1
 128 637 l 1
 128 510 l 1
 0 510 l 1
128 510 m 1
 128 637 l 1
 255 637 l 1
 255 510 l 1
 128 510 l 1
255 510 m 1
 255 637 l 1
 383 637 l 1
 383 510 l 1
 255 510 l 1
383 510 m 1
 383 637 l 1
 510 637 l 1
 510 510 l 1
 383 510 l 1
0 383 m 1
 0 510 l 1
 128 510 l 1
 128 383 l 1
 0 383 l 1
128 383 m 1
 128 510 l 1
 255 510 l 1
 255 383 l 1
 128 383 l 1
383 383 m 1
 383 510 l 1
 510 510 l 1
 510 383 l 1
 383 383 l 1
0 255 m 1
 0 383 l 1
 128 383 l 1
 128 255 l 1
 0 255 l 1
383 255 m 1
 383 383 l 1
 510 383 l 1
 510 255 l 1
 383 255 l 1
0 128 m 1
 0 255 l 1
 128 255 l 1
 128 128 l 1
 0 128 l 1
383 128 m 1
 383 255 l 1
 510 255 l 1
 510 128 l 1
 383 128 l 1
0 0 m 1
 0 128 l 1
 128 128 l 1
 128 0 l 1
 0 0 l 1
383 0 m 1
 383 128 l 1
 510 128 l 1
 510 0 l 1
 383 0 l 1
0 637 m 1
 0 765 l 1
 128 765 l 1
 128 637 l 1
 0 637 l 1
255 637 m 1
 255 765 l 1
 383 765 l 1
 383 637 l 1
 255 637 l 1
383 637 m 1
 383 765 l 1
 510 765 l 1
 510 637 l 1
 383 637 l 1
0 510 m 1
 0 637 l 1
 128 637 l 1
 128 510 l 1
 0 510 l 1
128 510 m 1
 128 637 l 1
 255 637 l 1
 255 510 l 1
 128 510 l 1
255 510 m 1
 255 637 l 1
 383 637 l 1
 383 510 l 1
 255 510 l 1
383 510 m 1
 383 637 l 1
 510 637 l 1
 510 510 l 1
 383 510 l 1
0 383 m 1
 0 510 l 1
 128 510 l 1
 128 383 l 1
 0 383 l 1
128 383 m 1
 128 510 l 1
 255 510 l 1
 255 383 l 1
 128 383 l 1
383 383 m 1
 383 510 l 1
 510 510 l 1
 510 383 l 1
 383 383 l 1
0 255 m 1
 0 383 l 1
 128 383 l 1
 128 255 l 1
 0 255 l 1
383 255 m 1
 383 383 l 1
 510 383 l 1
 510 255 l 1
 383 255 l 1
0 128 m 1
 0 255 l 1
 128 255 l 1
 128 128 l 1
 0 128 l 1
383 128 m 1
 383 255 l 1
 510 255 l 1
 510 128 l 1
 383 128 l 1
0 0 m 1
 0 128 l 1
 128 128 l 1
 128 0 l 1
 0 0 l 1
383 0 m 1
 383 128 l 1
 510 128 l 1
 510 0 l 1
 383 0 l 1
EndSplineSet
EndChar

StartChar: N
Encoding: 78 78 78
Width: 764
Flags: HW
LayerCount: 2
Fore
SplineSet
0 637 m 1
 0 765 l 1
 128 765 l 1
 128 637 l 1
 0 637 l 1
128 637 m 1
 128 765 l 1
 255 765 l 1
 255 637 l 1
 128 637 l 1
383 637 m 1
 383 765 l 1
 510 765 l 1
 510 637 l 1
 383 637 l 1
0 510 m 1
 0 637 l 1
 128 637 l 1
 128 510 l 1
 0 510 l 1
128 510 m 1
 128 637 l 1
 255 637 l 1
 255 510 l 1
 128 510 l 1
383 510 m 1
 383 637 l 1
 510 637 l 1
 510 510 l 1
 383 510 l 1
0 383 m 1
 0 510 l 1
 128 510 l 1
 128 383 l 1
 0 383 l 1
255 383 m 1
 255 510 l 1
 383 510 l 1
 383 383 l 1
 255 383 l 1
383 383 m 1
 383 510 l 1
 510 510 l 1
 510 383 l 1
 383 383 l 1
0 255 m 1
 0 383 l 1
 128 383 l 1
 128 255 l 1
 0 255 l 1
255 255 m 1
 255 383 l 1
 383 383 l 1
 383 255 l 1
 255 255 l 1
383 255 m 1
 383 383 l 1
 510 383 l 1
 510 255 l 1
 383 255 l 1
0 128 m 1
 0 255 l 1
 128 255 l 1
 128 128 l 1
 0 128 l 1
383 128 m 1
 383 255 l 1
 510 255 l 1
 510 128 l 1
 383 128 l 1
0 0 m 1
 0 128 l 1
 128 128 l 1
 128 0 l 1
 0 0 l 1
383 0 m 1
 383 128 l 1
 510 128 l 1
 510 0 l 1
 383 0 l 1
0 637 m 1
 0 765 l 1
 128 765 l 1
 128 637 l 1
 0 637 l 1
128 637 m 1
 128 765 l 1
 255 765 l 1
 255 637 l 1
 128 637 l 1
383 637 m 1
 383 765 l 1
 510 765 l 1
 510 637 l 1
 383 637 l 1
0 510 m 1
 0 637 l 1
 128 637 l 1
 128 510 l 1
 0 510 l 1
128 510 m 1
 128 637 l 1
 255 637 l 1
 255 510 l 1
 128 510 l 1
383 510 m 1
 383 637 l 1
 510 637 l 1
 510 510 l 1
 383 510 l 1
0 383 m 1
 0 510 l 1
 128 510 l 1
 128 383 l 1
 0 383 l 1
255 383 m 1
 255 510 l 1
 383 510 l 1
 383 383 l 1
 255 383 l 1
383 383 m 1
 383 510 l 1
 510 510 l 1
 510 383 l 1
 383 383 l 1
0 255 m 1
 0 383 l 1
 128 383 l 1
 128 255 l 1
 0 255 l 1
255 255 m 1
 255 383 l 1
 383 383 l 1
 383 255 l 1
 255 255 l 1
383 255 m 1
 383 383 l 1
 510 383 l 1
 510 255 l 1
 383 255 l 1
0 128 m 1
 0 255 l 1
 128 255 l 1
 128 128 l 1
 0 128 l 1
383 128 m 1
 383 255 l 1
 510 255 l 1
 510 128 l 1
 383 128 l 1
0 0 m 1
 0 128 l 1
 128 128 l 1
 128 0 l 1
 0 0 l 1
383 0 m 1
 383 128 l 1
 510 128 l 1
 510 0 l 1
 383 0 l 1
EndSplineSet
EndChar

StartChar: O
Encoding: 79 79 79
Width: 764
Flags: HW
LayerCount: 2
Fore
SplineSet
128 637 m 1
 128 765 l 1
 255 765 l 1
 255 637 l 1
 128 637 l 1
255 637 m 1
 255 765 l 1
 383 765 l 1
 383 637 l 1
 255 637 l 1
383 637 m 1
 383 765 l 1
 510 765 l 1
 510 637 l 1
 383 637 l 1
0 510 m 1
 0 637 l 1
 128 637 l 1
 128 510 l 1
 0 510 l 1
383 510 m 1
 383 637 l 1
 510 637 l 1
 510 510 l 1
 383 510 l 1
0 383 m 1
 0 510 l 1
 128 510 l 1
 128 383 l 1
 0 383 l 1
383 383 m 1
 383 510 l 1
 510 510 l 1
 510 383 l 1
 383 383 l 1
0 255 m 1
 0 383 l 1
 128 383 l 1
 128 255 l 1
 0 255 l 1
383 255 m 1
 383 383 l 1
 510 383 l 1
 510 255 l 1
 383 255 l 1
0 128 m 1
 0 255 l 1
 128 255 l 1
 128 128 l 1
 0 128 l 1
383 128 m 1
 383 255 l 1
 510 255 l 1
 510 128 l 1
 383 128 l 1
0 0 m 1
 0 128 l 1
 128 128 l 1
 128 0 l 1
 0 0 l 1
128 0 m 1
 128 128 l 1
 255 128 l 1
 255 0 l 1
 128 0 l 1
255 0 m 1
 255 128 l 1
 383 128 l 1
 383 0 l 1
 255 0 l 1
128 637 m 1
 128 765 l 1
 255 765 l 1
 255 637 l 1
 128 637 l 1
255 637 m 1
 255 765 l 1
 383 765 l 1
 383 637 l 1
 255 637 l 1
383 637 m 1
 383 765 l 1
 510 765 l 1
 510 637 l 1
 383 637 l 1
0 510 m 1
 0 637 l 1
 128 637 l 1
 128 510 l 1
 0 510 l 1
383 510 m 1
 383 637 l 1
 510 637 l 1
 510 510 l 1
 383 510 l 1
0 383 m 1
 0 510 l 1
 128 510 l 1
 128 383 l 1
 0 383 l 1
383 383 m 1
 383 510 l 1
 510 510 l 1
 510 383 l 1
 383 383 l 1
0 255 m 1
 0 383 l 1
 128 383 l 1
 128 255 l 1
 0 255 l 1
383 255 m 1
 383 383 l 1
 510 383 l 1
 510 255 l 1
 383 255 l 1
0 128 m 1
 0 255 l 1
 128 255 l 1
 128 128 l 1
 0 128 l 1
383 128 m 1
 383 255 l 1
 510 255 l 1
 510 128 l 1
 383 128 l 1
0 0 m 1
 0 128 l 1
 128 128 l 1
 128 0 l 1
 0 0 l 1
128 0 m 1
 128 128 l 1
 255 128 l 1
 255 0 l 1
 128 0 l 1
255 0 m 1
 255 128 l 1
 383 128 l 1
 383 0 l 1
 255 0 l 1
EndSplineSet
EndChar

StartChar: P
Encoding: 80 80 80
Width: 764
Flags: HW
LayerCount: 2
Fore
SplineSet
0 637 m 1
 0 765 l 1
 128 765 l 1
 128 637 l 1
 0 637 l 1
128 637 m 1
 128 765 l 1
 255 765 l 1
 255 637 l 1
 128 637 l 1
255 637 m 1
 255 765 l 1
 383 765 l 1
 383 637 l 1
 255 637 l 1
0 510 m 1
 0 637 l 1
 128 637 l 1
 128 510 l 1
 0 510 l 1
383 510 m 1
 383 637 l 1
 510 637 l 1
 510 510 l 1
 383 510 l 1
0 383 m 1
 0 510 l 1
 128 510 l 1
 128 383 l 1
 0 383 l 1
128 383 m 1
 128 510 l 1
 255 510 l 1
 255 383 l 1
 128 383 l 1
255 383 m 1
 255 510 l 1
 383 510 l 1
 383 383 l 1
 255 383 l 1
383 383 m 1
 383 510 l 1
 510 510 l 1
 510 383 l 1
 383 383 l 1
0 255 m 1
 0 383 l 1
 128 383 l 1
 128 255 l 1
 0 255 l 1
0 128 m 1
 0 255 l 1
 128 255 l 1
 128 128 l 1
 0 128 l 1
0 0 m 1
 0 128 l 1
 128 128 l 1
 128 0 l 1
 0 0 l 1
0 637 m 1
 0 765 l 1
 128 765 l 1
 128 637 l 1
 0 637 l 1
128 637 m 1
 128 765 l 1
 255 765 l 1
 255 637 l 1
 128 637 l 1
255 637 m 1
 255 765 l 1
 383 765 l 1
 383 637 l 1
 255 637 l 1
0 510 m 1
 0 637 l 1
 128 637 l 1
 128 510 l 1
 0 510 l 1
383 510 m 1
 383 637 l 1
 510 637 l 1
 510 510 l 1
 383 510 l 1
0 383 m 1
 0 510 l 1
 128 510 l 1
 128 383 l 1
 0 383 l 1
128 383 m 1
 128 510 l 1
 255 510 l 1
 255 383 l 1
 128 383 l 1
255 383 m 1
 255 510 l 1
 383 510 l 1
 383 383 l 1
 255 383 l 1
383 383 m 1
 383 510 l 1
 510 510 l 1
 510 383 l 1
 383 383 l 1
0 255 m 1
 0 383 l 1
 128 383 l 1
 128 255 l 1
 0 255 l 1
0 128 m 1
 0 255 l 1
 128 255 l 1
 128 128 l 1
 0 128 l 1
0 0 m 1
 0 128 l 1
 128 128 l 1
 128 0 l 1
 0 0 l 1
EndSplineSet
EndChar

StartChar: Q
Encoding: 81 81 81
Width: 764
Flags: HW
LayerCount: 2
Fore
SplineSet
0 637 m 1
 0 765 l 1
 128 765 l 1
 128 637 l 1
 0 637 l 1
128 637 m 1
 128 765 l 1
 255 765 l 1
 255 637 l 1
 128 637 l 1
255 637 m 1
 255 765 l 1
 383 765 l 1
 383 637 l 1
 255 637 l 1
0 510 m 1
 0 637 l 1
 128 637 l 1
 128 510 l 1
 0 510 l 1
383 510 m 1
 383 637 l 1
 510 637 l 1
 510 510 l 1
 383 510 l 1
0 383 m 1
 0 510 l 1
 128 510 l 1
 128 383 l 1
 0 383 l 1
383 383 m 1
 383 510 l 1
 510 510 l 1
 510 383 l 1
 383 383 l 1
0 255 m 1
 0 383 l 1
 128 383 l 1
 128 255 l 1
 0 255 l 1
383 255 m 1
 383 383 l 1
 510 383 l 1
 510 255 l 1
 383 255 l 1
0 128 m 1
 0 255 l 1
 128 255 l 1
 128 128 l 1
 0 128 l 1
255 128 m 1
 255 255 l 1
 383 255 l 1
 383 128 l 1
 255 128 l 1
383 128 m 1
 383 255 l 1
 510 255 l 1
 510 128 l 1
 383 128 l 1
128 0 m 1
 128 128 l 1
 255 128 l 1
 255 0 l 1
 128 0 l 1
255 0 m 1
 255 128 l 1
 383 128 l 1
 383 0 l 1
 255 0 l 1
383 0 m 1
 383 128 l 1
 510 128 l 1
 510 0 l 1
 383 0 l 1
0 637 m 1
 0 765 l 1
 128 765 l 1
 128 637 l 1
 0 637 l 1
128 637 m 1
 128 765 l 1
 255 765 l 1
 255 637 l 1
 128 637 l 1
255 637 m 1
 255 765 l 1
 383 765 l 1
 383 637 l 1
 255 637 l 1
0 510 m 1
 0 637 l 1
 128 637 l 1
 128 510 l 1
 0 510 l 1
383 510 m 1
 383 637 l 1
 510 637 l 1
 510 510 l 1
 383 510 l 1
0 383 m 1
 0 510 l 1
 128 510 l 1
 128 383 l 1
 0 383 l 1
383 383 m 1
 383 510 l 1
 510 510 l 1
 510 383 l 1
 383 383 l 1
0 255 m 1
 0 383 l 1
 128 383 l 1
 128 255 l 1
 0 255 l 1
383 255 m 1
 383 383 l 1
 510 383 l 1
 510 255 l 1
 383 255 l 1
0 128 m 1
 0 255 l 1
 128 255 l 1
 128 128 l 1
 0 128 l 1
255 128 m 1
 255 255 l 1
 383 255 l 1
 383 128 l 1
 255 128 l 1
383 128 m 1
 383 255 l 1
 510 255 l 1
 510 128 l 1
 383 128 l 1
128 0 m 1
 128 128 l 1
 255 128 l 1
 255 0 l 1
 128 0 l 1
255 0 m 1
 255 128 l 1
 383 128 l 1
 383 0 l 1
 255 0 l 1
383 0 m 1
 383 128 l 1
 510 128 l 1
 510 0 l 1
 383 0 l 1
EndSplineSet
EndChar

StartChar: R
Encoding: 82 82 82
Width: 764
Flags: HW
LayerCount: 2
Fore
SplineSet
0 637 m 1
 0 765 l 1
 128 765 l 1
 128 637 l 1
 0 637 l 1
128 637 m 1
 128 765 l 1
 255 765 l 1
 255 637 l 1
 128 637 l 1
255 637 m 1
 255 765 l 1
 383 765 l 1
 383 637 l 1
 255 637 l 1
0 510 m 1
 0 637 l 1
 128 637 l 1
 128 510 l 1
 0 510 l 1
383 510 m 1
 383 637 l 1
 510 637 l 1
 510 510 l 1
 383 510 l 1
0 383 m 1
 0 510 l 1
 128 510 l 1
 128 383 l 1
 0 383 l 1
383 383 m 1
 383 510 l 1
 510 510 l 1
 510 383 l 1
 383 383 l 1
0 255 m 1
 0 383 l 1
 128 383 l 1
 128 255 l 1
 0 255 l 1
128 255 m 1
 128 383 l 1
 255 383 l 1
 255 255 l 1
 128 255 l 1
255 255 m 1
 255 383 l 1
 383 383 l 1
 383 255 l 1
 255 255 l 1
0 128 m 1
 0 255 l 1
 128 255 l 1
 128 128 l 1
 0 128 l 1
383 128 m 1
 383 255 l 1
 510 255 l 1
 510 128 l 1
 383 128 l 1
0 0 m 1
 0 128 l 1
 128 128 l 1
 128 0 l 1
 0 0 l 1
383 0 m 1
 383 128 l 1
 510 128 l 1
 510 0 l 1
 383 0 l 1
0 637 m 1
 0 765 l 1
 128 765 l 1
 128 637 l 1
 0 637 l 1
128 637 m 1
 128 765 l 1
 255 765 l 1
 255 637 l 1
 128 637 l 1
255 637 m 1
 255 765 l 1
 383 765 l 1
 383 637 l 1
 255 637 l 1
0 510 m 1
 0 637 l 1
 128 637 l 1
 128 510 l 1
 0 510 l 1
383 510 m 1
 383 637 l 1
 510 637 l 1
 510 510 l 1
 383 510 l 1
0 383 m 1
 0 510 l 1
 128 510 l 1
 128 383 l 1
 0 383 l 1
383 383 m 1
 383 510 l 1
 510 510 l 1
 510 383 l 1
 383 383 l 1
0 255 m 1
 0 383 l 1
 128 383 l 1
 128 255 l 1
 0 255 l 1
128 255 m 1
 128 383 l 1
 255 383 l 1
 255 255 l 1
 128 255 l 1
255 255 m 1
 255 383 l 1
 383 383 l 1
 383 255 l 1
 255 255 l 1
0 128 m 1
 0 255 l 1
 128 255 l 1
 128 128 l 1
 0 128 l 1
383 128 m 1
 383 255 l 1
 510 255 l 1
 510 128 l 1
 383 128 l 1
0 0 m 1
 0 128 l 1
 128 128 l 1
 128 0 l 1
 0 0 l 1
383 0 m 1
 383 128 l 1
 510 128 l 1
 510 0 l 1
 383 0 l 1
EndSplineSet
EndChar

StartChar: S
Encoding: 83 83 83
Width: 764
Flags: HW
LayerCount: 2
Fore
SplineSet
128 637 m 1
 128 765 l 1
 255 765 l 1
 255 637 l 1
 128 637 l 1
255 637 m 1
 255 765 l 1
 383 765 l 1
 383 637 l 1
 255 637 l 1
383 637 m 1
 383 765 l 1
 510 765 l 1
 510 637 l 1
 383 637 l 1
0 510 m 1
 0 637 l 1
 128 637 l 1
 128 510 l 1
 0 510 l 1
0 383 m 1
 0 510 l 1
 128 510 l 1
 128 383 l 1
 0 383 l 1
128 383 m 1
 128 510 l 1
 255 510 l 1
 255 383 l 1
 128 383 l 1
255 383 m 1
 255 510 l 1
 383 510 l 1
 383 383 l 1
 255 383 l 1
383 255 m 1
 383 383 l 1
 510 383 l 1
 510 255 l 1
 383 255 l 1
383 128 m 1
 383 255 l 1
 510 255 l 1
 510 128 l 1
 383 128 l 1
0 0 m 1
 0 128 l 1
 128 128 l 1
 128 0 l 1
 0 0 l 1
128 0 m 1
 128 128 l 1
 255 128 l 1
 255 0 l 1
 128 0 l 1
255 0 m 1
 255 128 l 1
 383 128 l 1
 383 0 l 1
 255 0 l 1
128 637 m 1
 128 765 l 1
 255 765 l 1
 255 637 l 1
 128 637 l 1
255 637 m 1
 255 765 l 1
 383 765 l 1
 383 637 l 1
 255 637 l 1
383 637 m 1
 383 765 l 1
 510 765 l 1
 510 637 l 1
 383 637 l 1
0 510 m 1
 0 637 l 1
 128 637 l 1
 128 510 l 1
 0 510 l 1
0 383 m 1
 0 510 l 1
 128 510 l 1
 128 383 l 1
 0 383 l 1
128 383 m 1
 128 510 l 1
 255 510 l 1
 255 383 l 1
 128 383 l 1
255 383 m 1
 255 510 l 1
 383 510 l 1
 383 383 l 1
 255 383 l 1
383 255 m 1
 383 383 l 1
 510 383 l 1
 510 255 l 1
 383 255 l 1
383 128 m 1
 383 255 l 1
 510 255 l 1
 510 128 l 1
 383 128 l 1
0 0 m 1
 0 128 l 1
 128 128 l 1
 128 0 l 1
 0 0 l 1
128 0 m 1
 128 128 l 1
 255 128 l 1
 255 0 l 1
 128 0 l 1
255 0 m 1
 255 128 l 1
 383 128 l 1
 383 0 l 1
 255 0 l 1
EndSplineSet
EndChar

StartChar: T
Encoding: 84 84 84
Width: 764
Flags: HW
LayerCount: 2
Fore
SplineSet
0 637 m 1
 0 765 l 1
 128 765 l 1
 128 637 l 1
 0 637 l 1
128 637 m 1
 128 765 l 1
 255 765 l 1
 255 637 l 1
 128 637 l 1
255 637 m 1
 255 765 l 1
 383 765 l 1
 383 637 l 1
 255 637 l 1
383 637 m 1
 383 765 l 1
 510 765 l 1
 510 637 l 1
 383 637 l 1
128 510 m 1
 128 637 l 1
 255 637 l 1
 255 510 l 1
 128 510 l 1
128 383 m 1
 128 510 l 1
 255 510 l 1
 255 383 l 1
 128 383 l 1
128 255 m 1
 128 383 l 1
 255 383 l 1
 255 255 l 1
 128 255 l 1
128 128 m 1
 128 255 l 1
 255 255 l 1
 255 128 l 1
 128 128 l 1
128 0 m 1
 128 128 l 1
 255 128 l 1
 255 0 l 1
 128 0 l 1
0 637 m 1
 0 765 l 1
 128 765 l 1
 128 637 l 1
 0 637 l 1
128 637 m 1
 128 765 l 1
 255 765 l 1
 255 637 l 1
 128 637 l 1
255 637 m 1
 255 765 l 1
 383 765 l 1
 383 637 l 1
 255 637 l 1
383 637 m 1
 383 765 l 1
 510 765 l 1
 510 637 l 1
 383 637 l 1
128 510 m 1
 128 637 l 1
 255 637 l 1
 255 510 l 1
 128 510 l 1
128 383 m 1
 128 510 l 1
 255 510 l 1
 255 383 l 1
 128 383 l 1
128 255 m 1
 128 383 l 1
 255 383 l 1
 255 255 l 1
 128 255 l 1
128 128 m 1
 128 255 l 1
 255 255 l 1
 255 128 l 1
 128 128 l 1
128 0 m 1
 128 128 l 1
 255 128 l 1
 255 0 l 1
 128 0 l 1
EndSplineSet
EndChar

StartChar: U
Encoding: 85 85 85
Width: 764
Flags: HW
LayerCount: 2
Fore
SplineSet
0 637 m 1
 0 765 l 1
 128 765 l 1
 128 637 l 1
 0 637 l 1
383 637 m 1
 383 765 l 1
 510 765 l 1
 510 637 l 1
 383 637 l 1
0 510 m 1
 0 637 l 1
 128 637 l 1
 128 510 l 1
 0 510 l 1
383 510 m 1
 383 637 l 1
 510 637 l 1
 510 510 l 1
 383 510 l 1
0 383 m 1
 0 510 l 1
 128 510 l 1
 128 383 l 1
 0 383 l 1
383 383 m 1
 383 510 l 1
 510 510 l 1
 510 383 l 1
 383 383 l 1
0 255 m 1
 0 383 l 1
 128 383 l 1
 128 255 l 1
 0 255 l 1
383 255 m 1
 383 383 l 1
 510 383 l 1
 510 255 l 1
 383 255 l 1
0 128 m 1
 0 255 l 1
 128 255 l 1
 128 128 l 1
 0 128 l 1
383 128 m 1
 383 255 l 1
 510 255 l 1
 510 128 l 1
 383 128 l 1
128 0 m 1
 128 128 l 1
 255 128 l 1
 255 0 l 1
 128 0 l 1
255 0 m 1
 255 128 l 1
 383 128 l 1
 383 0 l 1
 255 0 l 1
383 0 m 1
 383 128 l 1
 510 128 l 1
 510 0 l 1
 383 0 l 1
0 637 m 1
 0 765 l 1
 128 765 l 1
 128 637 l 1
 0 637 l 1
383 637 m 1
 383 765 l 1
 510 765 l 1
 510 637 l 1
 383 637 l 1
0 510 m 1
 0 637 l 1
 128 637 l 1
 128 510 l 1
 0 510 l 1
383 510 m 1
 383 637 l 1
 510 637 l 1
 510 510 l 1
 383 510 l 1
0 383 m 1
 0 510 l 1
 128 510 l 1
 128 383 l 1
 0 383 l 1
383 383 m 1
 383 510 l 1
 510 510 l 1
 510 383 l 1
 383 383 l 1
0 255 m 1
 0 383 l 1
 128 383 l 1
 128 255 l 1
 0 255 l 1
383 255 m 1
 383 383 l 1
 510 383 l 1
 510 255 l 1
 383 255 l 1
0 128 m 1
 0 255 l 1
 128 255 l 1
 128 128 l 1
 0 128 l 1
383 128 m 1
 383 255 l 1
 510 255 l 1
 510 128 l 1
 383 128 l 1
128 0 m 1
 128 128 l 1
 255 128 l 1
 255 0 l 1
 128 0 l 1
255 0 m 1
 255 128 l 1
 383 128 l 1
 383 0 l 1
 255 0 l 1
383 0 m 1
 383 128 l 1
 510 128 l 1
 510 0 l 1
 383 0 l 1
EndSplineSet
EndChar

StartChar: V
Encoding: 86 86 86
Width: 764
Flags: HW
LayerCount: 2
Fore
SplineSet
0 637 m 1
 0 765 l 1
 128 765 l 1
 128 637 l 1
 0 637 l 1
383 637 m 1
 383 765 l 1
 510 765 l 1
 510 637 l 1
 383 637 l 1
0 510 m 1
 0 637 l 1
 128 637 l 1
 128 510 l 1
 0 510 l 1
383 510 m 1
 383 637 l 1
 510 637 l 1
 510 510 l 1
 383 510 l 1
0 383 m 1
 0 510 l 1
 128 510 l 1
 128 383 l 1
 0 383 l 1
383 383 m 1
 383 510 l 1
 510 510 l 1
 510 383 l 1
 383 383 l 1
0 255 m 1
 0 383 l 1
 128 383 l 1
 128 255 l 1
 0 255 l 1
383 255 m 1
 383 383 l 1
 510 383 l 1
 510 255 l 1
 383 255 l 1
128 128 m 1
 128 255 l 1
 255 255 l 1
 255 128 l 1
 128 128 l 1
383 128 m 1
 383 255 l 1
 510 255 l 1
 510 128 l 1
 383 128 l 1
255 0 m 1
 255 128 l 1
 383 128 l 1
 383 0 l 1
 255 0 l 1
0 637 m 1
 0 765 l 1
 128 765 l 1
 128 637 l 1
 0 637 l 1
383 637 m 1
 383 765 l 1
 510 765 l 1
 510 637 l 1
 383 637 l 1
0 510 m 1
 0 637 l 1
 128 637 l 1
 128 510 l 1
 0 510 l 1
383 510 m 1
 383 637 l 1
 510 637 l 1
 510 510 l 1
 383 510 l 1
0 383 m 1
 0 510 l 1
 128 510 l 1
 128 383 l 1
 0 383 l 1
383 383 m 1
 383 510 l 1
 510 510 l 1
 510 383 l 1
 383 383 l 1
0 255 m 1
 0 383 l 1
 128 383 l 1
 128 255 l 1
 0 255 l 1
383 255 m 1
 383 383 l 1
 510 383 l 1
 510 255 l 1
 383 255 l 1
128 128 m 1
 128 255 l 1
 255 255 l 1
 255 128 l 1
 128 128 l 1
383 128 m 1
 383 255 l 1
 510 255 l 1
 510 128 l 1
 383 128 l 1
255 0 m 1
 255 128 l 1
 383 128 l 1
 383 0 l 1
 255 0 l 1
EndSplineSet
EndChar

StartChar: W
Encoding: 87 87 87
Width: 764
Flags: HW
LayerCount: 2
Fore
SplineSet
0 637 m 1
 0 765 l 1
 128 765 l 1
 128 637 l 1
 0 637 l 1
383 637 m 1
 383 765 l 1
 510 765 l 1
 510 637 l 1
 383 637 l 1
0 510 m 1
 0 637 l 1
 128 637 l 1
 128 510 l 1
 0 510 l 1
383 510 m 1
 383 637 l 1
 510 637 l 1
 510 510 l 1
 383 510 l 1
0 383 m 1
 0 510 l 1
 128 510 l 1
 128 383 l 1
 0 383 l 1
383 383 m 1
 383 510 l 1
 510 510 l 1
 510 383 l 1
 383 383 l 1
0 255 m 1
 0 383 l 1
 128 383 l 1
 128 255 l 1
 0 255 l 1
128 255 m 1
 128 383 l 1
 255 383 l 1
 255 255 l 1
 128 255 l 1
383 255 m 1
 383 383 l 1
 510 383 l 1
 510 255 l 1
 383 255 l 1
0 128 m 1
 0 255 l 1
 128 255 l 1
 128 128 l 1
 0 128 l 1
128 128 m 1
 128 255 l 1
 255 255 l 1
 255 128 l 1
 128 128 l 1
255 128 m 1
 255 255 l 1
 383 255 l 1
 383 128 l 1
 255 128 l 1
383 128 m 1
 383 255 l 1
 510 255 l 1
 510 128 l 1
 383 128 l 1
0 0 m 1
 0 128 l 1
 128 128 l 1
 128 0 l 1
 0 0 l 1
255 0 m 1
 255 128 l 1
 383 128 l 1
 383 0 l 1
 255 0 l 1
383 0 m 1
 383 128 l 1
 510 128 l 1
 510 0 l 1
 383 0 l 1
0 637 m 1
 0 765 l 1
 128 765 l 1
 128 637 l 1
 0 637 l 1
383 637 m 1
 383 765 l 1
 510 765 l 1
 510 637 l 1
 383 637 l 1
0 510 m 1
 0 637 l 1
 128 637 l 1
 128 510 l 1
 0 510 l 1
383 510 m 1
 383 637 l 1
 510 637 l 1
 510 510 l 1
 383 510 l 1
0 383 m 1
 0 510 l 1
 128 510 l 1
 128 383 l 1
 0 383 l 1
383 383 m 1
 383 510 l 1
 510 510 l 1
 510 383 l 1
 383 383 l 1
0 255 m 1
 0 383 l 1
 128 383 l 1
 128 255 l 1
 0 255 l 1
128 255 m 1
 128 383 l 1
 255 383 l 1
 255 255 l 1
 128 255 l 1
383 255 m 1
 383 383 l 1
 510 383 l 1
 510 255 l 1
 383 255 l 1
0 128 m 1
 0 255 l 1
 128 255 l 1
 128 128 l 1
 0 128 l 1
128 128 m 1
 128 255 l 1
 255 255 l 1
 255 128 l 1
 128 128 l 1
255 128 m 1
 255 255 l 1
 383 255 l 1
 383 128 l 1
 255 128 l 1
383 128 m 1
 383 255 l 1
 510 255 l 1
 510 128 l 1
 383 128 l 1
0 0 m 1
 0 128 l 1
 128 128 l 1
 128 0 l 1
 0 0 l 1
255 0 m 1
 255 128 l 1
 383 128 l 1
 383 0 l 1
 255 0 l 1
383 0 m 1
 383 128 l 1
 510 128 l 1
 510 0 l 1
 383 0 l 1
EndSplineSet
EndChar

StartChar: X
Encoding: 88 88 88
Width: 764
Flags: HW
LayerCount: 2
Fore
SplineSet
0 637 m 1
 0 765 l 1
 128 765 l 1
 128 637 l 1
 0 637 l 1
383 637 m 1
 383 765 l 1
 510 765 l 1
 510 637 l 1
 383 637 l 1
0 510 m 1
 0 637 l 1
 128 637 l 1
 128 510 l 1
 0 510 l 1
383 510 m 1
 383 637 l 1
 510 637 l 1
 510 510 l 1
 383 510 l 1
128 383 m 1
 128 510 l 1
 255 510 l 1
 255 383 l 1
 128 383 l 1
255 383 m 1
 255 510 l 1
 383 510 l 1
 383 383 l 1
 255 383 l 1
128 255 m 1
 128 383 l 1
 255 383 l 1
 255 255 l 1
 128 255 l 1
255 255 m 1
 255 383 l 1
 383 383 l 1
 383 255 l 1
 255 255 l 1
0 128 m 1
 0 255 l 1
 128 255 l 1
 128 128 l 1
 0 128 l 1
383 128 m 1
 383 255 l 1
 510 255 l 1
 510 128 l 1
 383 128 l 1
0 0 m 1
 0 128 l 1
 128 128 l 1
 128 0 l 1
 0 0 l 1
383 0 m 1
 383 128 l 1
 510 128 l 1
 510 0 l 1
 383 0 l 1
0 637 m 1
 0 765 l 1
 128 765 l 1
 128 637 l 1
 0 637 l 1
383 637 m 1
 383 765 l 1
 510 765 l 1
 510 637 l 1
 383 637 l 1
0 510 m 1
 0 637 l 1
 128 637 l 1
 128 510 l 1
 0 510 l 1
383 510 m 1
 383 637 l 1
 510 637 l 1
 510 510 l 1
 383 510 l 1
128 383 m 1
 128 510 l 1
 255 510 l 1
 255 383 l 1
 128 383 l 1
255 383 m 1
 255 510 l 1
 383 510 l 1
 383 383 l 1
 255 383 l 1
128 255 m 1
 128 383 l 1
 255 383 l 1
 255 255 l 1
 128 255 l 1
255 255 m 1
 255 383 l 1
 383 383 l 1
 383 255 l 1
 255 255 l 1
0 128 m 1
 0 255 l 1
 128 255 l 1
 128 128 l 1
 0 128 l 1
383 128 m 1
 383 255 l 1
 510 255 l 1
 510 128 l 1
 383 128 l 1
0 0 m 1
 0 128 l 1
 128 128 l 1
 128 0 l 1
 0 0 l 1
383 0 m 1
 383 128 l 1
 510 128 l 1
 510 0 l 1
 383 0 l 1
EndSplineSet
EndChar

StartChar: Y
Encoding: 89 89 89
Width: 764
Flags: HW
LayerCount: 2
Fore
SplineSet
0 637 m 1
 0 765 l 1
 128 765 l 1
 128 637 l 1
 0 637 l 1
383 637 m 1
 383 765 l 1
 510 765 l 1
 510 637 l 1
 383 637 l 1
0 510 m 1
 0 637 l 1
 128 637 l 1
 128 510 l 1
 0 510 l 1
383 510 m 1
 383 637 l 1
 510 637 l 1
 510 510 l 1
 383 510 l 1
0 383 m 1
 0 510 l 1
 128 510 l 1
 128 383 l 1
 0 383 l 1
128 383 m 1
 128 510 l 1
 255 510 l 1
 255 383 l 1
 128 383 l 1
255 383 m 1
 255 510 l 1
 383 510 l 1
 383 383 l 1
 255 383 l 1
383 383 m 1
 383 510 l 1
 510 510 l 1
 510 383 l 1
 383 383 l 1
128 255 m 1
 128 383 l 1
 255 383 l 1
 255 255 l 1
 128 255 l 1
128 128 m 1
 128 255 l 1
 255 255 l 1
 255 128 l 1
 128 128 l 1
128 0 m 1
 128 128 l 1
 255 128 l 1
 255 0 l 1
 128 0 l 1
0 637 m 1
 0 765 l 1
 128 765 l 1
 128 637 l 1
 0 637 l 1
383 637 m 1
 383 765 l 1
 510 765 l 1
 510 637 l 1
 383 637 l 1
0 510 m 1
 0 637 l 1
 128 637 l 1
 128 510 l 1
 0 510 l 1
383 510 m 1
 383 637 l 1
 510 637 l 1
 510 510 l 1
 383 510 l 1
0 383 m 1
 0 510 l 1
 128 510 l 1
 128 383 l 1
 0 383 l 1
128 383 m 1
 128 510 l 1
 255 510 l 1
 255 383 l 1
 128 383 l 1
255 383 m 1
 255 510 l 1
 383 510 l 1
 383 383 l 1
 255 383 l 1
383 383 m 1
 383 510 l 1
 510 510 l 1
 510 383 l 1
 383 383 l 1
128 255 m 1
 128 383 l 1
 255 383 l 1
 255 255 l 1
 128 255 l 1
128 128 m 1
 128 255 l 1
 255 255 l 1
 255 128 l 1
 128 128 l 1
128 0 m 1
 128 128 l 1
 255 128 l 1
 255 0 l 1
 128 0 l 1
EndSplineSet
EndChar

StartChar: Z
Encoding: 90 90 90
Width: 764
Flags: HW
LayerCount: 2
Fore
SplineSet
128 637 m 1
 128 765 l 1
 255 765 l 1
 255 637 l 1
 128 637 l 1
255 637 m 1
 255 765 l 1
 383 765 l 1
 383 637 l 1
 255 637 l 1
383 637 m 1
 383 765 l 1
 510 765 l 1
 510 637 l 1
 383 637 l 1
383 510 m 1
 383 637 l 1
 510 637 l 1
 510 510 l 1
 383 510 l 1
255 383 m 1
 255 510 l 1
 383 510 l 1
 383 383 l 1
 255 383 l 1
128 255 m 1
 128 383 l 1
 255 383 l 1
 255 255 l 1
 128 255 l 1
0 128 m 1
 0 255 l 1
 128 255 l 1
 128 128 l 1
 0 128 l 1
0 0 m 1
 0 128 l 1
 128 128 l 1
 128 0 l 1
 0 0 l 1
128 0 m 1
 128 128 l 1
 255 128 l 1
 255 0 l 1
 128 0 l 1
255 0 m 1
 255 128 l 1
 383 128 l 1
 383 0 l 1
 255 0 l 1
383 0 m 1
 383 128 l 1
 510 128 l 1
 510 0 l 1
 383 0 l 1
128 637 m 1
 128 765 l 1
 255 765 l 1
 255 637 l 1
 128 637 l 1
255 637 m 1
 255 765 l 1
 383 765 l 1
 383 637 l 1
 255 637 l 1
383 637 m 1
 383 765 l 1
 510 765 l 1
 510 637 l 1
 383 637 l 1
383 510 m 1
 383 637 l 1
 510 637 l 1
 510 510 l 1
 383 510 l 1
255 383 m 1
 255 510 l 1
 383 510 l 1
 383 383 l 1
 255 383 l 1
128 255 m 1
 128 383 l 1
 255 383 l 1
 255 255 l 1
 128 255 l 1
0 128 m 1
 0 255 l 1
 128 255 l 1
 128 128 l 1
 0 128 l 1
0 0 m 1
 0 128 l 1
 128 128 l 1
 128 0 l 1
 0 0 l 1
128 0 m 1
 128 128 l 1
 255 128 l 1
 255 0 l 1
 128 0 l 1
255 0 m 1
 255 128 l 1
 383 128 l 1
 383 0 l 1
 255 0 l 1
383 0 m 1
 383 128 l 1
 510 128 l 1
 510 0 l 1
 383 0 l 1
EndSplineSet
EndChar

